<svg width="28" height="28" viewBox="0 0 28 28" fill="none" xmlns="http://www.w3.org/2000/svg">
<path fill-rule="evenodd" clip-rule="evenodd" d="M13.9999 4.37476L22.4858 4.61468C23.9852 4.65708 25.2254 5.79534 25.3959 7.28564C25.7734 10.5845 25.7734 13.9157 25.3959 17.2146C25.2254 18.7049 23.9852 19.8431 22.4858 19.8855L16.0416 20.0677V22.4584H19.8333C20.3165 22.4584 20.7083 22.8502 20.7083 23.3334C20.7083 23.8167 20.3165 24.2084 19.8333 24.2084H8.1666C7.68335 24.2084 7.2916 23.8167 7.2916 23.3334C7.2916 22.8502 7.68335 22.4584 8.1666 22.4584H11.9583V20.0677L5.51401 19.8855C4.01459 19.8431 2.7744 18.7049 2.60389 17.2146C2.22644 13.9157 2.22644 10.5845 2.60389 7.28564C2.7744 5.79534 4.01459 4.65708 5.51401 4.61468L13.9999 4.37476ZM13.9999 6.12546L5.56347 6.36399C4.9344 6.38177 4.41408 6.85932 4.34254 7.48457C3.98022 10.6513 3.98022 13.8489 4.34254 17.0156C4.41408 17.6409 4.9344 18.1184 5.56347 18.1362L13.9999 18.3748L22.4363 18.1362C23.0654 18.1184 23.5857 17.6409 23.6573 17.0156C24.0196 13.8489 24.0196 10.6513 23.6573 7.48457C23.5857 6.85932 23.0654 6.38177 22.4363 6.36399L13.9999 6.12546Z" fill="#666666"/>
</svg>
