<svg width="28" height="28" viewBox="0 0 28 28" fill="none" xmlns="http://www.w3.org/2000/svg">
<path d="M16.0954 4.82554C14.9492 3.64182 13.0508 3.64181 11.9046 4.82553L6.30641 10.6072C5.98489 10.9393 5.76884 11.3591 5.68548 11.8137C5.00559 15.5213 4.9554 19.317 5.53703 23.0413L5.74295 24.3599C5.80799 24.7764 6.16669 25.0834 6.58822 25.0834H10.5C10.8222 25.0834 11.0833 24.8222 11.0833 24.5001V16.3334H16.9167V24.5001C16.9167 24.8222 17.1778 25.0834 17.5 25.0834H21.4117C21.8333 25.0834 22.192 24.7764 22.257 24.3599L22.4629 23.0413C23.0446 19.317 22.9944 15.5213 22.3145 11.8137C22.2311 11.359 22.0151 10.9393 21.6936 10.6072L16.0954 4.82554Z" fill="#FF3440"/>
</svg>
